<mxfile host="65bd71144e">
    <diagram id="nw37gXG7gELMe304u28M" name="Page-1">
        <mxGraphModel dx="2596" dy="7112" grid="0" gridSize="10" guides="1" tooltips="1" connect="1" arrows="1" fold="1" page="0" pageScale="1" pageWidth="850" pageHeight="1100" background="#262626" math="0" shadow="0">
            <root>
                <mxCell id="0"/>
                <mxCell id="1" parent="0"/>
                <mxCell id="46" style="edgeStyle=none;html=1;entryX=-0.002;entryY=0.535;entryDx=0;entryDy=0;entryPerimeter=0;fontSize=17;fontColor=#575757;" parent="1" source="30" target="39" edge="1">
                    <mxGeometry relative="1" as="geometry"/>
                </mxCell>
                <mxCell id="30" value="" style="whiteSpace=wrap;html=1;fillColor=#222336;" parent="1" vertex="1">
                    <mxGeometry x="860" y="-5450" width="1130" height="790" as="geometry"/>
                </mxCell>
                <mxCell id="31" value="" style="rhombus;whiteSpace=wrap;html=1;fillColor=#1ba1e2;fontColor=#ffffff;strokeColor=#006EAF;" parent="1" vertex="1">
                    <mxGeometry x="1360" y="-5480" width="30" height="30" as="geometry"/>
                </mxCell>
                <mxCell id="32" value="YC Diamond" style="text;html=1;align=center;verticalAlign=middle;resizable=0;points=[];autosize=1;strokeColor=none;fillColor=none;" parent="1" vertex="1">
                    <mxGeometry x="1390" y="-5480" width="90" height="30" as="geometry"/>
                </mxCell>
                <mxCell id="35" value="" style="whiteSpace=wrap;html=1;fillColor=#222336;" parent="1" vertex="1">
                    <mxGeometry x="-230" y="-5418.12" width="1000" height="738.12" as="geometry"/>
                </mxCell>
                <mxCell id="36" value="YC Strategy Vault" style="text;html=1;align=center;verticalAlign=middle;resizable=0;points=[];autosize=1;strokeColor=none;fillColor=none;" parent="1" vertex="1">
                    <mxGeometry x="222.5" y="-5460" width="120" height="30" as="geometry"/>
                </mxCell>
                <mxCell id="38" value="" style="ellipse;whiteSpace=wrap;html=1;fillColor=#60a917;fontColor=#ffffff;strokeColor=#2D7600;" parent="1" vertex="1">
                    <mxGeometry x="197.5" y="-5457.5" width="25" height="25" as="geometry"/>
                </mxCell>
                <mxCell id="39" value="" style="whiteSpace=wrap;html=1;fillColor=#222336;" parent="1" vertex="1">
                    <mxGeometry x="2150" y="-5938.75" width="1020" height="1508.75" as="geometry"/>
                </mxCell>
                <mxCell id="40" value="&lt;font style=&quot;font-size: 17px;&quot;&gt;YC Helpers&lt;/font&gt;" style="text;html=1;align=center;verticalAlign=middle;resizable=0;points=[];autosize=1;strokeColor=none;fillColor=none;" parent="1" vertex="1">
                    <mxGeometry x="2590" y="-5980" width="110" height="30" as="geometry"/>
                </mxCell>
                <mxCell id="41" value="&lt;div style=&quot;background-color: rgb(34, 35, 54); font-family: Menlo, Monaco, &amp;quot;Courier New&amp;quot;, monospace; line-height: 18px;&quot;&gt;&lt;div style=&quot;&quot;&gt;&lt;font color=&quot;#575757&quot;&gt;**&lt;br style=&quot;&quot;&gt;* A recrusive function that accepts a byte argument, attempts to decode it using&amp;nbsp;&lt;br&gt;* YC's &quot;Function&quot; struct - if fails, returns the byte as-is. If it goes through, it&amp;nbsp;&lt;br&gt;* makes the desired function call, whilst recrusing the same process for each one of the function's&lt;br&gt;* arguments.&lt;br style=&quot;&quot;&gt;*/&lt;/font&gt;&lt;span style=&quot;color: rgb(86, 156, 214);&quot;&gt;&lt;br&gt;function&lt;/span&gt;&lt;font color=&quot;#babbcc&quot;&gt; getArgValue&lt;/font&gt;&lt;span style=&quot;color: rgb(220, 220, 220);&quot;&gt;(&lt;/span&gt;&lt;span style=&quot;color: rgb(0, 122, 166);&quot;&gt;bytes&lt;/span&gt;&lt;font color=&quot;#babbcc&quot;&gt; arg&lt;/font&gt;&lt;span style=&quot;color: rgb(220, 220, 220);&quot;&gt;)&lt;/span&gt; &lt;span style=&quot;color: rgb(33, 148, 81);&quot;&gt;returns&lt;/span&gt; &lt;span style=&quot;color: rgb(220, 220, 220);&quot;&gt;(&lt;/span&gt;&lt;span style=&quot;color: rgb(0, 122, 166);&quot;&gt;bytes&lt;/span&gt;&lt;font color=&quot;#babbcc&quot;&gt; returnArg&lt;/font&gt;&lt;span style=&quot;color: rgb(220, 220, 220);&quot;&gt;)&lt;/span&gt; &lt;span style=&quot;color: rgb(220, 220, 220);&quot;&gt;{&lt;/span&gt;&lt;/div&gt;&lt;div style=&quot;color: rgb(186, 187, 204);&quot;&gt;&lt;span style=&quot;color: #ffc107;&quot;&gt;&amp;nbsp; if&lt;/span&gt; &lt;span style=&quot;color: #dcdcdc;&quot;&gt;(!&lt;/span&gt;FunctionStruct&lt;span style=&quot;color: #dcdcdc;&quot;&gt;)&lt;/span&gt; &lt;span style=&quot;color: #219451;&quot;&gt;return&lt;/span&gt; arg &lt;/div&gt;&lt;div style=&quot;color: rgb(186, 187, 204);&quot;&gt;&lt;span style=&quot;color: #ffc107;&quot;&gt;&amp;nbsp; else&lt;/span&gt; &lt;span style=&quot;color: #dcdcdc;&quot;&gt;{&lt;/span&gt;&lt;/div&gt;&lt;div style=&quot;color: rgb(186, 187, 204);&quot;&gt;&amp;nbsp; &amp;nbsp; FunctionStruct &lt;span style=&quot;color: #9e7e08;&quot;&gt;memory&lt;/span&gt; decodedFunc &lt;span style=&quot;color: #dcdcdc;&quot;&gt;=&lt;/span&gt; &lt;span style=&quot;color: #007aa6;&quot;&gt;abi&lt;/span&gt;&lt;span style=&quot;color: #dcdcdc;&quot;&gt;.&lt;/span&gt;decode&lt;span style=&quot;color: #dcdcdc;&quot;&gt;(&lt;/span&gt;arg&lt;span style=&quot;color: #dcdcdc;&quot;&gt;,&lt;/span&gt; &lt;span style=&quot;color: #dcdcdc;&quot;&gt;(&lt;/span&gt;FunctionStruct&lt;span style=&quot;color: #dcdcdc;&quot;&gt;));&lt;/span&gt;&lt;/div&gt;&lt;div style=&quot;color: rgb(186, 187, 204);&quot;&gt;&lt;span style=&quot;color: #007aa6;&quot;&gt;&amp;nbsp; &amp;nbsp; bytes&lt;/span&gt;&lt;span style=&quot;color: #dcdcdc;&quot;&gt;[]&lt;/span&gt; &lt;span style=&quot;color: #9e7e08;&quot;&gt;memory&lt;/span&gt; newArgs &lt;span style=&quot;color: #dcdcdc;&quot;&gt;=&lt;/span&gt; &lt;span style=&quot;color: #569cd6;&quot;&gt;new&lt;/span&gt; &lt;span style=&quot;color: #007aa6;&quot;&gt;bytes&lt;/span&gt;&lt;span style=&quot;color: #dcdcdc;&quot;&gt;[](&lt;/span&gt;decodedFunc&lt;span style=&quot;color: #dcdcdc;&quot;&gt;.&lt;/span&gt;args&lt;span style=&quot;color: #dcdcdc;&quot;&gt;.&lt;/span&gt;length&lt;span style=&quot;color: #dcdcdc;&quot;&gt;);&lt;/span&gt;&lt;/div&gt;&lt;br&gt;&lt;div style=&quot;color: rgb(186, 187, 204);&quot;&gt;&lt;span style=&quot;color: #c97539;&quot;&gt;&amp;nbsp; &amp;nbsp; for&lt;/span&gt; &lt;span style=&quot;color: #dcdcdc;&quot;&gt;(&lt;/span&gt;&lt;span style=&quot;color: #569cd6;&quot;&gt;uint256&lt;/span&gt; i &lt;span style=&quot;color: #dcdcdc;&quot;&gt;=&lt;/span&gt; &lt;span style=&quot;color: #b5cea8;&quot;&gt;0&lt;/span&gt;&lt;span style=&quot;color: #dcdcdc;&quot;&gt;;&lt;/span&gt; i &lt;span style=&quot;color: #dcdcdc;&quot;&gt;&amp;lt;&lt;/span&gt; newArgs&lt;span style=&quot;color: #dcdcdc;&quot;&gt;.&lt;/span&gt;length&lt;span style=&quot;color: #dcdcdc;&quot;&gt;;&lt;/span&gt; i&lt;span style=&quot;color: #dcdcdc;&quot;&gt;++)&lt;/span&gt; &lt;span style=&quot;color: #dcdcdc;&quot;&gt;{&lt;/span&gt;&lt;/div&gt;&lt;div style=&quot;color: rgb(186, 187, 204);&quot;&gt;&amp;nbsp; &amp;nbsp; &amp;nbsp; newArgs&lt;span style=&quot;color: #dcdcdc;&quot;&gt;[&lt;/span&gt;i&lt;span style=&quot;color: #dcdcdc;&quot;&gt;]&lt;/span&gt; &lt;span style=&quot;color: #dcdcdc;&quot;&gt;=&lt;/span&gt; getArgValue&lt;span style=&quot;color: #dcdcdc;&quot;&gt;(&lt;/span&gt;newArgs&lt;span style=&quot;color: #dcdcdc;&quot;&gt;[&lt;/span&gt;i&lt;span style=&quot;color: #dcdcdc;&quot;&gt;])&lt;/span&gt; &lt;span style=&quot;color: #608b4e;&quot;&gt;// Recrusion&lt;/span&gt;&lt;/div&gt;&lt;div style=&quot;color: rgb(186, 187, 204);&quot;&gt;&lt;span style=&quot;color: #dcdcdc;&quot;&gt;&amp;nbsp; &amp;nbsp; }&lt;/span&gt;&lt;/div&gt;&lt;br&gt;&lt;div style=&quot;color: rgb(186, 187, 204);&quot;&gt;&lt;span style=&quot;color: #007aa6;&quot;&gt;&amp;nbsp; bytes&lt;/span&gt;&amp;nbsp;callData&amp;nbsp;&lt;span style=&quot;color: #dcdcdc;&quot;&gt;=&lt;/span&gt;&amp;nbsp;encodeArbitraryCalldata&lt;span style=&quot;color: #dcdcdc;&quot;&gt;(&lt;/span&gt;newArgs&lt;span style=&quot;color: #dcdcdc;&quot;&gt;);&lt;/span&gt; &lt;span style=&quot;color: #608b4e;&quot;&gt;// Concat bytes into single calldata&lt;/span&gt;&lt;/div&gt;&lt;br&gt;&lt;div style=&quot;&quot;&gt;&lt;span style=&quot;color: rgb(220, 220, 220);&quot;&gt;&amp;nbsp; (&lt;/span&gt;&lt;span style=&quot;color: rgb(86, 156, 214);&quot;&gt;bool&lt;/span&gt;&lt;font color=&quot;#babbcc&quot;&gt; success&lt;/font&gt;&lt;span style=&quot;color: rgb(220, 220, 220);&quot;&gt;,&lt;/span&gt; &lt;span style=&quot;color: rgb(0, 122, 166);&quot;&gt;bytes&lt;/span&gt; &lt;span style=&quot;color: rgb(158, 126, 8);&quot;&gt;memory&lt;/span&gt;&lt;font color=&quot;#babbcc&quot;&gt; res&lt;/font&gt;&lt;span style=&quot;color: rgb(220, 220, 220);&quot;&gt;)&lt;/span&gt; &lt;span style=&quot;color: rgb(220, 220, 220);&quot;&gt;=&lt;/span&gt;&lt;font color=&quot;#babbcc&quot;&gt; decodedFunc&lt;/font&gt;&lt;span style=&quot;color: rgb(220, 220, 220);&quot;&gt;.&lt;/span&gt;&lt;span style=&quot;color: rgb(86, 156, 214);&quot;&gt;address&lt;/span&gt;&lt;span style=&quot;color: rgb(220, 220, 220);&quot;&gt;.&lt;/span&gt;&lt;font color=&quot;#babbcc&quot;&gt;call&lt;/font&gt;&lt;span style=&quot;color: rgb(220, 220, 220);&quot;&gt;(&lt;/span&gt;&lt;span style=&quot;color: rgb(0, 122, 166);&quot;&gt;abi&lt;/span&gt;&lt;span style=&quot;color: rgb(220, 220, 220);&quot;&gt;.&lt;/span&gt;&lt;font color=&quot;#babbcc&quot;&gt;encodeWithSignature&lt;/font&gt;&lt;span style=&quot;color: rgb(220, 220, 220);&quot;&gt;(&lt;/span&gt;&lt;font color=&quot;#babbcc&quot;&gt;callData&lt;/font&gt;&lt;span style=&quot;color: rgb(220, 220, 220);&quot;&gt;))&lt;/span&gt;&lt;/div&gt;&lt;div style=&quot;color: rgb(186, 187, 204);&quot;&gt;&lt;span style=&quot;color: #dcdcdc;&quot;&gt;&amp;nbsp; }&lt;/span&gt;&lt;/div&gt;&lt;div style=&quot;color: rgb(186, 187, 204);&quot;&gt;&lt;span style=&quot;color: #dcdcdc;&quot;&gt;}&lt;/span&gt;&lt;/div&gt;&lt;div style=&quot;color: rgb(186, 187, 204);&quot;&gt; &lt;/div&gt;&lt;/div&gt;" style="text;html=1;align=left;verticalAlign=middle;resizable=0;points=[];autosize=1;strokeColor=none;fillColor=none;" parent="1" vertex="1">
                    <mxGeometry x="2173" y="-5890" width="740" height="390" as="geometry"/>
                </mxCell>
                <mxCell id="42" value="&lt;div style=&quot;background-color: rgb(34, 35, 54); font-family: Menlo, Monaco, &amp;quot;Courier New&amp;quot;, monospace; line-height: 18px;&quot;&gt;&lt;div style=&quot;&quot;&gt;&lt;font color=&quot;#636363&quot;&gt;/**&lt;br&gt;&amp;nbsp;* Generates a calldata using a function signature (string) and an arbitrary-length array of bytes.&lt;br&gt;*/&lt;/font&gt;&lt;/div&gt;&lt;div style=&quot;color: rgb(186, 187, 204);&quot;&gt;&lt;span style=&quot;color: #569cd6;&quot;&gt;function&lt;/span&gt; encodeArbitraryCalldata&lt;span style=&quot;color: #dcdcdc;&quot;&gt;(&lt;/span&gt;&lt;span style=&quot;color: #569cd6;&quot;&gt;string&lt;/span&gt; &lt;span style=&quot;color: #9e7e08;&quot;&gt;memory&lt;/span&gt; _functionSig&lt;span style=&quot;color: #dcdcdc;&quot;&gt;,&lt;/span&gt; &lt;span style=&quot;color: #007aa6;&quot;&gt;bytes&lt;/span&gt;&lt;span style=&quot;color: #dcdcdc;&quot;&gt;[]&lt;/span&gt; &lt;span style=&quot;color: #9e7e08;&quot;&gt;memory&lt;/span&gt; _arguments&lt;span style=&quot;color: #dcdcdc;&quot;&gt;)&lt;/span&gt; &lt;span style=&quot;color: #32ba89;&quot;&gt;public&lt;/span&gt; &lt;span style=&quot;color: #32ba89;&quot;&gt;pure&lt;/span&gt; &lt;span style=&quot;color: #219451;&quot;&gt;returns&lt;/span&gt; &lt;span style=&quot;color: #dcdcdc;&quot;&gt;(&lt;/span&gt;&lt;span style=&quot;color: #007aa6;&quot;&gt;bytes&lt;/span&gt; &lt;span style=&quot;color: #9e7e08;&quot;&gt;memory&lt;/span&gt; callData&lt;span style=&quot;color: #dcdcdc;&quot;&gt;)&lt;/span&gt; &lt;span style=&quot;color: #dcdcdc;&quot;&gt;{&lt;/span&gt;&lt;/div&gt;&lt;div style=&quot;color: rgb(186, 187, 204);&quot;&gt;&amp;nbsp; callData &lt;span style=&quot;color: #dcdcdc;&quot;&gt;=&lt;/span&gt; &lt;span style=&quot;color: #007aa6;&quot;&gt;abi&lt;/span&gt;&lt;span style=&quot;color: #dcdcdc;&quot;&gt;.&lt;/span&gt;encodeWithSignature&lt;span style=&quot;color: #dcdcdc;&quot;&gt;(&lt;/span&gt;_functionSig&lt;span style=&quot;color: #dcdcdc;&quot;&gt;);&lt;/span&gt;&lt;/div&gt;&lt;div style=&quot;color: rgb(186, 187, 204);&quot;&gt;        &lt;span style=&quot;color: #c97539;&quot;&gt;&amp;nbsp; for&lt;/span&gt; &lt;span style=&quot;color: #dcdcdc;&quot;&gt;(&lt;/span&gt;&lt;span style=&quot;color: #569cd6;&quot;&gt;uint256&lt;/span&gt; i &lt;span style=&quot;color: #dcdcdc;&quot;&gt;=&lt;/span&gt; &lt;span style=&quot;color: #b5cea8;&quot;&gt;0&lt;/span&gt;&lt;span style=&quot;color: #dcdcdc;&quot;&gt;;&lt;/span&gt; i &lt;span style=&quot;color: #dcdcdc;&quot;&gt;&amp;lt;&lt;/span&gt; _arguments&lt;span style=&quot;color: #dcdcdc;&quot;&gt;.&lt;/span&gt;length&lt;span style=&quot;color: #dcdcdc;&quot;&gt;;&lt;/span&gt; i&lt;span style=&quot;color: #dcdcdc;&quot;&gt;++)&lt;/span&gt; &lt;span style=&quot;color: #dcdcdc;&quot;&gt;{&lt;/span&gt;&lt;/div&gt;&lt;div style=&quot;color: rgb(186, 187, 204);&quot;&gt;&amp;nbsp; &amp;nbsp; callData &lt;span style=&quot;color: #dcdcdc;&quot;&gt;=&lt;/span&gt; &lt;span style=&quot;color: #007aa6;&quot;&gt;bytes&lt;/span&gt;&lt;span style=&quot;color: #dcdcdc;&quot;&gt;.&lt;/span&gt;concat&lt;span style=&quot;color: #dcdcdc;&quot;&gt;(&lt;/span&gt;callData&lt;span style=&quot;color: #dcdcdc;&quot;&gt;,&lt;/span&gt; _arguments&lt;span style=&quot;color: #dcdcdc;&quot;&gt;[&lt;/span&gt;i&lt;span style=&quot;color: #dcdcdc;&quot;&gt;]);&lt;/span&gt;&lt;/div&gt;&lt;div style=&quot;color: rgb(186, 187, 204);&quot;&gt;        &lt;span style=&quot;color: #dcdcdc;&quot;&gt;&amp;nbsp; }&lt;/span&gt;&lt;/div&gt;&lt;div style=&quot;color: rgb(186, 187, 204);&quot;&gt;        &lt;span style=&quot;color: #219451;&quot;&gt;&amp;nbsp; return&lt;/span&gt; callData&lt;span style=&quot;color: #dcdcdc;&quot;&gt;;&lt;/span&gt;&lt;/div&gt;&lt;div style=&quot;color: rgb(186, 187, 204);&quot;&gt;    &lt;span style=&quot;color: #dcdcdc;&quot;&gt;}&lt;/span&gt;&lt;/div&gt;&lt;/div&gt;" style="text;html=1;align=left;verticalAlign=middle;resizable=0;points=[];autosize=1;strokeColor=none;fillColor=none;" parent="1" vertex="1">
                    <mxGeometry x="2173" y="-5470" width="980" height="190" as="geometry"/>
                </mxCell>
                <mxCell id="44" value="&lt;div style=&quot;color: rgb(186, 187, 204); background-color: rgb(34, 35, 54); font-family: Menlo, Monaco, &amp;quot;Courier New&amp;quot;, monospace; font-weight: normal; font-size: 12px; line-height: 18px;&quot;&gt;&lt;div&gt;&lt;span style=&quot;color: rgb(99, 99, 99);&quot;&gt;/**&lt;/span&gt;&lt;br style=&quot;color: rgb(99, 99, 99);&quot;&gt;&lt;span style=&quot;color: rgb(99, 99, 99);&quot;&gt;&amp;nbsp;* Struct that a &quot;Function&quot;&amp;nbsp; &amp;nbsp;* is defined in&lt;/span&gt;&lt;br style=&quot;color: rgb(99, 99, 99);&quot;&gt;&lt;span style=&quot;color: rgb(99, 99, 99);&quot;&gt;*/&lt;/span&gt;&lt;span style=&quot;color: #569cd6;&quot;&gt;&lt;br&gt;struct&lt;/span&gt;&lt;span style=&quot;color: #babbcc;&quot;&gt; FunctionCall &lt;/span&gt;&lt;span style=&quot;color: #dcdcdc;&quot;&gt;{&lt;/span&gt;&lt;/div&gt;&lt;div&gt;&lt;span style=&quot;color: #babbcc;&quot;&gt;&lt;/span&gt;&lt;span style=&quot;color: #569cd6;&quot;&gt;&amp;nbsp; string&lt;/span&gt;&lt;span style=&quot;color: #babbcc;&quot;&gt; functionSig&lt;/span&gt;&lt;span style=&quot;color: #dcdcdc;&quot;&gt;;&lt;/span&gt;&lt;/div&gt;&lt;div&gt;&lt;span style=&quot;color: #babbcc;&quot;&gt;&lt;/span&gt;&lt;span style=&quot;color: #007aa6;&quot;&gt;&amp;nbsp; bytes&lt;/span&gt;&lt;span style=&quot;color: #dcdcdc;&quot;&gt;[]&lt;/span&gt;&lt;span style=&quot;color: #babbcc;&quot;&gt; args&lt;/span&gt;&lt;span style=&quot;color: #dcdcdc;&quot;&gt;;&lt;/span&gt;&lt;/div&gt;&lt;div&gt;&lt;span style=&quot;color: #babbcc;&quot;&gt;&lt;/span&gt;&lt;span style=&quot;color: #569cd6;&quot;&gt;&amp;nbsp; bool&lt;/span&gt;&lt;span style=&quot;color: #babbcc;&quot;&gt; is_callback&lt;/span&gt;&lt;span style=&quot;color: #dcdcdc;&quot;&gt;;&lt;/span&gt;&lt;/div&gt;&lt;div&gt;&lt;span style=&quot;color: #babbcc;&quot;&gt;&lt;/span&gt;&lt;span style=&quot;color: #569cd6;&quot;&gt;&amp;nbsp; address&lt;/span&gt;&lt;span style=&quot;color: #babbcc;&quot;&gt; addressToCallOn&lt;/span&gt;&lt;span style=&quot;color: #dcdcdc;&quot;&gt;;&lt;/span&gt;&lt;/div&gt;&lt;div&gt;&lt;span style=&quot;color: #dcdcdc;&quot;&gt;}&lt;/span&gt;&lt;/div&gt;&lt;/div&gt;" style="text;whiteSpace=wrap;html=1;fontSize=17;fontColor=#575757;" parent="1" vertex="1">
                    <mxGeometry x="2173" y="-5223" width="210" height="130" as="geometry"/>
                </mxCell>
                <mxCell id="79" style="edgeStyle=none;html=1;fontSize=27;fontColor=#CDC6CF;exitX=0.027;exitY=0.747;exitDx=0;exitDy=0;exitPerimeter=0;" parent="1" source="45" target="65" edge="1">
                    <mxGeometry relative="1" as="geometry"/>
                </mxCell>
                <mxCell id="80" style="edgeStyle=none;html=1;entryX=1.015;entryY=0.415;entryDx=0;entryDy=0;entryPerimeter=0;fontSize=27;fontColor=#CDC6CF;exitX=0.027;exitY=0.782;exitDx=0;exitDy=0;exitPerimeter=0;" parent="1" source="45" target="78" edge="1">
                    <mxGeometry relative="1" as="geometry"/>
                </mxCell>
                <mxCell id="45" value="&lt;div style=&quot;background-color: rgb(34, 35, 54); font-family: Menlo, Monaco, &amp;quot;Courier New&amp;quot;, monospace; font-weight: normal; font-size: 12px; line-height: 18px;&quot;&gt;&lt;div style=&quot;&quot;&gt;&lt;font color=&quot;#707070&quot;&gt;// Runs a step&lt;br&gt;&lt;/font&gt;&lt;font color=&quot;#569cd6&quot;&gt;function&lt;/font&gt;&lt;span style=&quot;color: rgb(186, 187, 204);&quot;&gt; runStep&lt;/span&gt;&lt;span style=&quot;color: rgb(220, 220, 220);&quot;&gt;(&lt;/span&gt;&lt;span style=&quot;color: rgb(186, 187, 204);&quot;&gt;FunctionCall &lt;/span&gt;&lt;span style=&quot;color: rgb(158, 126, 8);&quot;&gt;memory&lt;/span&gt;&lt;span style=&quot;color: rgb(186, 187, 204);&quot;&gt; functionToCall&lt;/span&gt;&lt;span style=&quot;color: rgb(220, 220, 220);&quot;&gt;)&lt;/span&gt;&lt;span style=&quot;color: rgb(186, 187, 204);&quot;&gt; &lt;/span&gt;&lt;font color=&quot;#dcdcdc&quot;&gt;{&lt;/font&gt;&lt;br&gt;&amp;nbsp; // Check if it is classified in the YC Diamod&lt;/div&gt;&lt;div style=&quot;color: rgb(186, 187, 204);&quot;&gt;&lt;span style=&quot;color: #babbcc;&quot;&gt;&lt;/span&gt;&lt;span style=&quot;color: #569cd6;&quot;&gt;&amp;nbsp; bool&lt;/span&gt;&lt;span style=&quot;color: #babbcc;&quot;&gt;&amp;nbsp;classifiedFunction&amp;nbsp;&lt;/span&gt;&lt;span style=&quot;color: #dcdcdc;&quot;&gt;=&lt;/span&gt;&lt;span style=&quot;color: #babbcc;&quot;&gt;&amp;nbsp;getClassifiedFunction(functionToCall.signature)&lt;/span&gt;&lt;span style=&quot;color: #dcdcdc;&quot;&gt;;&lt;/span&gt;&lt;/div&gt;&lt;div style=&quot;color: rgb(186, 187, 204);&quot;&gt;&lt;span style=&quot;color: #babbcc;&quot;&gt;&lt;/span&gt;&lt;span style=&quot;color: #007aa6;&quot;&gt;&amp;nbsp; require&lt;/span&gt;&lt;span style=&quot;color: #dcdcdc;&quot;&gt;(&lt;/span&gt;&lt;span style=&quot;color: #babbcc;&quot;&gt;classifiedFunction != &quot;&quot;&lt;/span&gt;&lt;span style=&quot;color: #dcdcdc;&quot;&gt;,&lt;/span&gt;&lt;span style=&quot;color: #babbcc;&quot;&gt; &lt;/span&gt;&lt;span style=&quot;color: #ce9178;&quot;&gt;&quot;Function being attempted is unsupported&quot;&lt;/span&gt;&lt;span style=&quot;color: #dcdcdc;&quot;&gt;);&lt;/span&gt;&lt;/div&gt;&lt;div style=&quot;color: rgb(186, 187, 204);&quot;&gt;&lt;span style=&quot;color: #babbcc;&quot;&gt;&lt;/span&gt;&lt;span style=&quot;color: #007aa6;&quot;&gt;&amp;nbsp; bytes&lt;/span&gt;&lt;span style=&quot;color: #dcdcdc;&quot;&gt;[]&lt;/span&gt;&lt;span style=&quot;color: #babbcc;&quot;&gt; newArgs &lt;/span&gt;&lt;span style=&quot;color: #dcdcdc;&quot;&gt;=&lt;/span&gt;&lt;span style=&quot;color: #babbcc;&quot;&gt; &lt;/span&gt;&lt;span style=&quot;color: #569cd6;&quot;&gt;new&lt;/span&gt;&lt;span style=&quot;color: #babbcc;&quot;&gt; &lt;/span&gt;&lt;span style=&quot;color: #007aa6;&quot;&gt;bytes&lt;/span&gt;&lt;span style=&quot;color: #dcdcdc;&quot;&gt;[](&lt;/span&gt;&lt;span style=&quot;color: #babbcc;&quot;&gt;functionToCall&lt;/span&gt;&lt;span style=&quot;color: #dcdcdc;&quot;&gt;.&lt;/span&gt;&lt;span style=&quot;color: #babbcc;&quot;&gt;args&lt;/span&gt;&lt;span style=&quot;color: #dcdcdc;&quot;&gt;.&lt;/span&gt;&lt;span style=&quot;color: #babbcc;&quot;&gt;length&lt;/span&gt;&lt;span style=&quot;color: #dcdcdc;&quot;&gt;);&lt;/span&gt;&lt;/div&gt;&lt;div style=&quot;color: rgb(186, 187, 204);&quot;&gt;&lt;span style=&quot;color: #babbcc;&quot;&gt;&lt;/span&gt;&lt;span style=&quot;color: #c97539;&quot;&gt;&amp;nbsp; for&lt;/span&gt;&lt;span style=&quot;color: #babbcc;&quot;&gt; &lt;/span&gt;&lt;span style=&quot;color: #dcdcdc;&quot;&gt;(&lt;/span&gt;&lt;span style=&quot;color: #569cd6;&quot;&gt;uint256&lt;/span&gt;&lt;span style=&quot;color: #babbcc;&quot;&gt; i &lt;/span&gt;&lt;span style=&quot;color: #dcdcdc;&quot;&gt;=&lt;/span&gt;&lt;span style=&quot;color: #babbcc;&quot;&gt; &lt;/span&gt;&lt;span style=&quot;color: #b5cea8;&quot;&gt;0&lt;/span&gt;&lt;span style=&quot;color: #dcdcdc;&quot;&gt;;&lt;/span&gt;&lt;span style=&quot;color: #babbcc;&quot;&gt; i &lt;/span&gt;&lt;span style=&quot;color: #dcdcdc;&quot;&gt;&amp;lt;&lt;/span&gt;&lt;span style=&quot;color: #babbcc;&quot;&gt; functionToCall&lt;/span&gt;&lt;span style=&quot;color: #dcdcdc;&quot;&gt;.&lt;/span&gt;&lt;span style=&quot;color: #babbcc;&quot;&gt;args&lt;/span&gt;&lt;span style=&quot;color: #dcdcdc;&quot;&gt;.&lt;/span&gt;&lt;span style=&quot;color: #babbcc;&quot;&gt;length&lt;/span&gt;&lt;span style=&quot;color: #dcdcdc;&quot;&gt;;&lt;/span&gt;&lt;span style=&quot;color: #babbcc;&quot;&gt; i&lt;/span&gt;&lt;span style=&quot;color: #dcdcdc;&quot;&gt;++)&lt;/span&gt;&lt;span style=&quot;color: #babbcc;&quot;&gt; &lt;/span&gt;&lt;span style=&quot;color: #dcdcdc;&quot;&gt;{&lt;/span&gt;&lt;/div&gt;&lt;div style=&quot;color: rgb(186, 187, 204);&quot;&gt;&lt;span style=&quot;color: #babbcc;&quot;&gt;&lt;/span&gt;&lt;span style=&quot;color: #007aa6;&quot;&gt;&amp;nbsp; &amp;nbsp; bytes&lt;/span&gt;&lt;span style=&quot;color: #babbcc;&quot;&gt; &lt;/span&gt;&lt;span style=&quot;color: #9e7e08;&quot;&gt;memory&lt;/span&gt;&lt;span style=&quot;color: #babbcc;&quot;&gt; newArg &lt;/span&gt;&lt;span style=&quot;color: #dcdcdc;&quot;&gt;=&lt;/span&gt;&lt;span style=&quot;color: #babbcc;&quot;&gt; getArgValue&lt;/span&gt;&lt;span style=&quot;color: #dcdcdc;&quot;&gt;(&lt;/span&gt;&lt;span style=&quot;color: #babbcc;&quot;&gt;functionToCall&lt;/span&gt;&lt;span style=&quot;color: #dcdcdc;&quot;&gt;.&lt;/span&gt;&lt;span style=&quot;color: #babbcc;&quot;&gt;args&lt;/span&gt;&lt;span style=&quot;color: #dcdcdc;&quot;&gt;[&lt;/span&gt;&lt;span style=&quot;color: #babbcc;&quot;&gt;i&lt;/span&gt;&lt;span style=&quot;color: #dcdcdc;&quot;&gt;]);&lt;/span&gt;&lt;/div&gt;&lt;div style=&quot;color: rgb(186, 187, 204);&quot;&gt;&lt;span style=&quot;color: #babbcc;&quot;&gt;&amp;nbsp; &amp;nbsp; newArgs&lt;/span&gt;&lt;span style=&quot;color: #dcdcdc;&quot;&gt;[&lt;/span&gt;&lt;span style=&quot;color: #babbcc;&quot;&gt;i&lt;/span&gt;&lt;span style=&quot;color: #dcdcdc;&quot;&gt;]&lt;/span&gt;&lt;span style=&quot;color: #babbcc;&quot;&gt; &lt;/span&gt;&lt;span style=&quot;color: #dcdcdc;&quot;&gt;=&lt;/span&gt;&lt;span style=&quot;color: #babbcc;&quot;&gt; newArg&lt;/span&gt;&lt;span style=&quot;color: #dcdcdc;&quot;&gt;;&lt;/span&gt;&lt;/div&gt;&lt;div style=&quot;color: rgb(186, 187, 204);&quot;&gt;&lt;span style=&quot;color: #babbcc;&quot;&gt;&lt;/span&gt;&lt;span style=&quot;color: #dcdcdc;&quot;&gt;&amp;nbsp; }&lt;/span&gt;&lt;/div&gt;&lt;div style=&quot;color: rgb(186, 187, 204);&quot;&gt;&lt;span style=&quot;color: #babbcc;&quot;&gt;&lt;/span&gt;&lt;span style=&quot;color: #007aa6;&quot;&gt;&amp;nbsp; bytes&lt;/span&gt;&lt;span style=&quot;color: #babbcc;&quot;&gt; &lt;/span&gt;&lt;span style=&quot;color: #9e7e08;&quot;&gt;memory&lt;/span&gt;&lt;span style=&quot;color: #babbcc;&quot;&gt; functionCalldata &lt;/span&gt;&lt;span style=&quot;color: #dcdcdc;&quot;&gt;=&lt;/span&gt;&lt;span style=&quot;color: #babbcc;&quot;&gt;&amp;nbsp;encodeArbitraryCalldata&lt;/span&gt;&lt;span style=&quot;color: #dcdcdc;&quot;&gt;(&lt;/span&gt;&lt;span style=&quot;color: #babbcc;&quot;&gt;functionToCall&lt;/span&gt;&lt;span style=&quot;color: #dcdcdc;&quot;&gt;.&lt;/span&gt;&lt;span style=&quot;color: #babbcc;&quot;&gt;signature&lt;/span&gt;&lt;span style=&quot;color: #dcdcdc;&quot;&gt;,&lt;/span&gt;&lt;span style=&quot;color: #babbcc;&quot;&gt; newArgs&lt;/span&gt;&lt;span style=&quot;color: #dcdcdc;&quot;&gt;);&lt;/span&gt;&lt;/div&gt;&lt;div style=&quot;color: rgb(186, 187, 204);&quot;&gt;&lt;span style=&quot;color: #babbcc;&quot;&gt;&lt;/span&gt;&lt;span style=&quot;color: #dcdcdc;&quot;&gt;&amp;nbsp; (&lt;/span&gt;&lt;span style=&quot;color: #569cd6;&quot;&gt;bool&lt;/span&gt;&lt;span style=&quot;color: #babbcc;&quot;&gt; success&lt;/span&gt;&lt;span style=&quot;color: #dcdcdc;&quot;&gt;,&lt;/span&gt;&lt;span style=&quot;color: #babbcc;&quot;&gt; &lt;/span&gt;&lt;span style=&quot;color: #007aa6;&quot;&gt;bytes&lt;/span&gt;&lt;span style=&quot;color: #babbcc;&quot;&gt; &lt;/span&gt;&lt;span style=&quot;color: #9e7e08;&quot;&gt;memory&lt;/span&gt;&lt;span style=&quot;color: #babbcc;&quot;&gt; result&lt;/span&gt;&lt;span style=&quot;color: #dcdcdc;&quot;&gt;)&lt;/span&gt;&lt;span style=&quot;color: #babbcc;&quot;&gt; &lt;/span&gt;&lt;span style=&quot;color: #dcdcdc;&quot;&gt;=&lt;/span&gt;&lt;span style=&quot;color: #babbcc;&quot;&gt; functionToCall&lt;/span&gt;&lt;span style=&quot;color: #dcdcdc;&quot;&gt;.&lt;/span&gt;&lt;span style=&quot;color: #babbcc;&quot;&gt;addressToCallOn&lt;/span&gt;&lt;span style=&quot;color: #dcdcdc;&quot;&gt;.&lt;/span&gt;&lt;span style=&quot;color: #babbcc;&quot;&gt;call&lt;/span&gt;&lt;span style=&quot;color: #dcdcdc;&quot;&gt;(&lt;/span&gt;&lt;span style=&quot;color: #babbcc;&quot;&gt;functionCalldata&lt;/span&gt;&lt;span style=&quot;color: #dcdcdc;&quot;&gt;);&lt;/span&gt;&lt;/div&gt;&lt;div style=&quot;color: rgb(186, 187, 204);&quot;&gt;&lt;span style=&quot;color: #babbcc;&quot;&gt;&lt;/span&gt;&lt;span style=&quot;color: #219451;&quot;&gt;&amp;nbsp; return&lt;/span&gt;&lt;span style=&quot;color: #babbcc;&quot;&gt; result&lt;/span&gt;&lt;span style=&quot;color: #dcdcdc;&quot;&gt;;&lt;/span&gt;&lt;/div&gt;&lt;div style=&quot;color: rgb(186, 187, 204);&quot;&gt;&lt;span style=&quot;color: #dcdcdc;&quot;&gt;}&lt;/span&gt;&lt;/div&gt;&lt;/div&gt;" style="text;whiteSpace=wrap;html=1;fontSize=17;fontColor=#575757;" parent="1" vertex="1">
                    <mxGeometry x="-210" y="-5189.0599999999995" width="740" height="280" as="geometry"/>
                </mxCell>
                <mxCell id="47" value="&lt;font style=&quot;font-size: 27px;&quot; color=&quot;#e6faec&quot;&gt;delegateCall&lt;br&gt;(for functionality)&lt;br&gt;&lt;/font&gt;" style="text;html=1;align=center;verticalAlign=middle;resizable=0;points=[];autosize=1;strokeColor=none;fillColor=none;fontSize=17;fontColor=#575757;" parent="1" vertex="1">
                    <mxGeometry x="1953" y="-5080" width="220" height="80" as="geometry"/>
                </mxCell>
                <mxCell id="48" value="&lt;div style=&quot;background-color: rgb(34, 35, 54); font-family: Menlo, Monaco, &amp;quot;Courier New&amp;quot;, monospace; font-weight: normal; font-size: 12px; line-height: 18px;&quot;&gt;&lt;div style=&quot;color: rgb(186, 187, 204);&quot;&gt;&lt;span style=&quot;color: #569cd6;&quot;&gt;function&lt;/span&gt;&lt;span style=&quot;color: #babbcc;&quot;&gt; runStrategy&lt;/span&gt;&lt;span style=&quot;color: #dcdcdc;&quot;&gt;(&lt;/span&gt;&lt;span style=&quot;color: #569cd6;&quot;&gt;uint256&lt;/span&gt;&lt;span style=&quot;color: #babbcc;&quot;&gt; stepIndex&lt;/span&gt;&lt;span style=&quot;color: #dcdcdc;&quot;&gt;)&lt;/span&gt;&lt;span style=&quot;color: #babbcc;&quot;&gt; &lt;/span&gt;&lt;span style=&quot;color: #dcdcdc;&quot;&gt;{&lt;/span&gt;&lt;/div&gt;&lt;div style=&quot;color: rgb(186, 187, 204);&quot;&gt;&lt;span style=&quot;color: #babbcc;&quot;&gt;&lt;/span&gt;&lt;span style=&quot;color: #c97539;&quot;&gt;&amp;nbsp; for&lt;/span&gt;&lt;span style=&quot;color: #babbcc;&quot;&gt; &lt;/span&gt;&lt;span style=&quot;color: #dcdcdc;&quot;&gt;(&lt;/span&gt;&lt;span style=&quot;color: #569cd6;&quot;&gt;uint256&lt;/span&gt;&lt;span style=&quot;color: #babbcc;&quot;&gt; i &lt;/span&gt;&lt;span style=&quot;color: #dcdcdc;&quot;&gt;=&lt;/span&gt;&lt;span style=&quot;color: #babbcc;&quot;&gt; index&lt;/span&gt;&lt;span style=&quot;color: #dcdcdc;&quot;&gt;;&lt;/span&gt;&lt;span style=&quot;color: #babbcc;&quot;&gt; i &lt;/span&gt;&lt;span style=&quot;color: #dcdcdc;&quot;&gt;&amp;lt;&lt;/span&gt;&lt;span style=&quot;color: #babbcc;&quot;&gt; steps&lt;/span&gt;&lt;span style=&quot;color: #dcdcdc;&quot;&gt;.&lt;/span&gt;&lt;span style=&quot;color: #babbcc;&quot;&gt;length&lt;/span&gt;&lt;span style=&quot;color: #dcdcdc;&quot;&gt;;&lt;/span&gt;&lt;span style=&quot;color: #babbcc;&quot;&gt; i&lt;/span&gt;&lt;span style=&quot;color: #dcdcdc;&quot;&gt;++)&lt;/span&gt;&lt;span style=&quot;color: #babbcc;&quot;&gt; &lt;/span&gt;&lt;span style=&quot;color: #dcdcdc;&quot;&gt;{&lt;/span&gt;&lt;/div&gt;&lt;div style=&quot;&quot;&gt;&lt;span style=&quot;color: rgb(186, 187, 204);&quot;&gt;&amp;nbsp; &amp;nbsp; &amp;nbsp;runStep&lt;/span&gt;&lt;span style=&quot;color: rgb(220, 220, 220);&quot;&gt;(&lt;/span&gt;&lt;span style=&quot;color: rgb(186, 187, 204);&quot;&gt;steps&lt;/span&gt;&lt;span style=&quot;color: rgb(220, 220, 220);&quot;&gt;[&lt;/span&gt;&lt;span style=&quot;color: rgb(186, 187, 204);&quot;&gt;i&lt;/span&gt;&lt;span style=&quot;color: rgb(220, 220, 220);&quot;&gt;]);&lt;/span&gt;&lt;span style=&quot;color: rgb(186, 187, 204);&quot;&gt; &lt;/span&gt;&lt;span style=&quot;color: rgb(96, 139, 78);&quot;&gt;// Delegate call to diamond, to access functions classifications&lt;br&gt;&amp;nbsp; &amp;nbsp;&amp;nbsp;&lt;/span&gt;&lt;span style=&quot;color: rgb(186, 187, 204);&quot;&gt;        &lt;/span&gt;&lt;span style=&quot;color: rgb(255, 193, 7);&quot;&gt;if&lt;/span&gt;&lt;span style=&quot;color: rgb(186, 187, 204);&quot;&gt; &lt;/span&gt;&lt;span style=&quot;color: rgb(220, 220, 220);&quot;&gt;(&lt;/span&gt;&lt;span style=&quot;color: rgb(186, 187, 204);&quot;&gt;steps&lt;/span&gt;&lt;span style=&quot;color: rgb(220, 220, 220);&quot;&gt;[&lt;/span&gt;&lt;span style=&quot;color: rgb(186, 187, 204);&quot;&gt;i&lt;/span&gt;&lt;span style=&quot;color: rgb(220, 220, 220);&quot;&gt;].&lt;/span&gt;&lt;span style=&quot;color: rgb(186, 187, 204);&quot;&gt;is_callback&lt;/span&gt;&lt;span style=&quot;color: rgb(220, 220, 220);&quot;&gt;)&lt;/span&gt;&lt;span style=&quot;color: rgb(186, 187, 204);&quot;&gt; &lt;/span&gt;&lt;span style=&quot;color: rgb(201, 117, 57);&quot;&gt;break&lt;/span&gt;&lt;span style=&quot;color: rgb(220, 220, 220);&quot;&gt;;&lt;/span&gt;&lt;/div&gt;&lt;div style=&quot;color: rgb(186, 187, 204); line-height: 18px;&quot;&gt;&lt;div&gt;&lt;/div&gt;&lt;/div&gt;&lt;div style=&quot;color: rgb(186, 187, 204);&quot;&gt;&lt;span style=&quot;color: #babbcc;&quot;&gt;&lt;/span&gt;&lt;span style=&quot;color: #dcdcdc;&quot;&gt;&amp;nbsp; }&lt;/span&gt;&lt;/div&gt;&lt;div style=&quot;color: rgb(186, 187, 204);&quot;&gt;&lt;span style=&quot;color: #dcdcdc;&quot;&gt;}&lt;/span&gt;&lt;/div&gt;&lt;/div&gt;" style="text;whiteSpace=wrap;html=1;fontSize=27;fontColor=#E6FAEC;" parent="1" vertex="1">
                    <mxGeometry x="-210" y="-5330" width="780" height="130" as="geometry"/>
                </mxCell>
                <mxCell id="49" value="&lt;div style=&quot;color: rgb(186, 187, 204); background-color: rgb(34, 35, 54); font-family: Menlo, Monaco, &amp;quot;Courier New&amp;quot;, monospace; font-weight: normal; font-size: 12px; line-height: 18px;&quot;&gt;&lt;div&gt;&lt;span style=&quot;color: #569cd6;&quot;&gt;function&lt;/span&gt;&lt;span style=&quot;color: #babbcc;&quot;&gt; getClassifiedFunction&lt;/span&gt;&lt;span style=&quot;color: #dcdcdc;&quot;&gt;(&lt;/span&gt;&lt;span style=&quot;color: #babbcc;&quot;&gt;string&amp;nbsp;&lt;/span&gt;&lt;span style=&quot;color: #9e7e08;&quot;&gt;memory&lt;/span&gt;&lt;span style=&quot;color: #babbcc;&quot;&gt; _funcSignature&lt;/span&gt;&lt;span style=&quot;color: #dcdcdc;&quot;&gt;)&lt;/span&gt;&lt;span style=&quot;color: #babbcc;&quot;&gt; &lt;/span&gt;&lt;span style=&quot;color: #32ba89;&quot;&gt;external&lt;/span&gt;&lt;span style=&quot;color: #babbcc;&quot;&gt; &lt;/span&gt;&lt;span style=&quot;color: #219451;&quot;&gt;returns&lt;/span&gt;&lt;span style=&quot;color: #babbcc;&quot;&gt; &lt;/span&gt;&lt;span style=&quot;color: #dcdcdc;&quot;&gt;(&lt;/span&gt;&lt;span style=&quot;color: #569cd6;&quot;&gt;string&lt;/span&gt;&lt;span style=&quot;color: #babbcc;&quot;&gt; classifiedFuncSig&lt;/span&gt;&lt;span style=&quot;color: #dcdcdc;&quot;&gt;)&lt;/span&gt;&lt;span style=&quot;color: #babbcc;&quot;&gt; &lt;/span&gt;&lt;span style=&quot;color: #dcdcdc;&quot;&gt;{&lt;/span&gt;&lt;/div&gt;&lt;div&gt;&lt;span style=&quot;color: #babbcc;&quot;&gt;    classifiedFuncSig&amp;nbsp;&lt;/span&gt;&lt;span style=&quot;color: #dcdcdc;&quot;&gt;=&lt;/span&gt;&lt;span style=&quot;color: #babbcc;&quot;&gt; functionsMapping&lt;/span&gt;&lt;span style=&quot;color: #dcdcdc;&quot;&gt;[&lt;/span&gt;&lt;span style=&quot;color: #babbcc;&quot;&gt;_funcSignature&lt;/span&gt;&lt;span style=&quot;color: #dcdcdc;&quot;&gt;]&lt;/span&gt;&lt;/div&gt;&lt;div&gt;&lt;span style=&quot;color: #dcdcdc;&quot;&gt;}&lt;/span&gt;&lt;/div&gt;&lt;/div&gt;" style="text;whiteSpace=wrap;html=1;fontSize=27;fontColor=#575757;" parent="1" vertex="1">
                    <mxGeometry x="875" y="-5280" width="1125" height="100" as="geometry"/>
                </mxCell>
                <mxCell id="50" value="&lt;div style=&quot;color: rgb(186, 187, 204); background-color: rgb(34, 35, 54); font-family: Menlo, Monaco, &amp;quot;Courier New&amp;quot;, monospace; font-weight: normal; font-size: 12px; line-height: 18px;&quot;&gt;&lt;div&gt;&lt;span style=&quot;color: rgb(86, 156, 214);&quot;&gt;mapping&lt;/span&gt;&amp;nbsp;&lt;span style=&quot;color: rgb(220, 220, 220);&quot;&gt;(&lt;/span&gt;&lt;span style=&quot;color: rgb(86, 156, 214);&quot;&gt;string&lt;/span&gt;&amp;nbsp;&lt;span style=&quot;color: rgb(96, 139, 78);&quot;&gt;/*Function Sig e.g func_30 */&lt;/span&gt;&amp;nbsp;=&amp;gt;&amp;nbsp;&lt;span style=&quot;color: rgb(86, 156, 214);&quot;&gt;string&lt;/span&gt;&amp;nbsp;&lt;span style=&quot;color: rgb(96, 139, 78);&quot;&gt;/*external function sig e.g addLiquidity(uint256, address, address)?*/&lt;/span&gt;&lt;span style=&quot;color: rgb(220, 220, 220);&quot;&gt;)&lt;/span&gt;&amp;nbsp;&lt;span style=&quot;color: rgb(50, 186, 137);&quot;&gt;public&lt;/span&gt;&amp;nbsp;functionsMapping&lt;br&gt;&lt;/div&gt;&lt;div&gt;&lt;span style=&quot;color: #569cd6;&quot;&gt;&lt;/span&gt;&lt;/div&gt;&lt;/div&gt;" style="text;whiteSpace=wrap;html=1;fontSize=27;fontColor=#575757;" parent="1" vertex="1">
                    <mxGeometry x="875" y="-5390" width="1165" height="60" as="geometry"/>
                </mxCell>
                <mxCell id="53" value="&lt;div style=&quot;color: rgb(186, 187, 204); background-color: rgb(34, 35, 54); font-family: Menlo, Monaco, &amp;quot;Courier New&amp;quot;, monospace; font-weight: normal; font-size: 12px; line-height: 18px;&quot;&gt;&lt;div&gt;&lt;div style=&quot;line-height: 18px;&quot;&gt;&lt;div&gt;&lt;span style=&quot;color: #608b4e;&quot;&gt;// Each byte item == encoded FunctionCall struct&lt;/span&gt;&lt;/div&gt;&lt;div&gt;&lt;span style=&quot;color: #007aa6;&quot;&gt;bytes&lt;/span&gt;&lt;span style=&quot;color: #dcdcdc;&quot;&gt;[]&lt;/span&gt; STRATEGY_STEPS &lt;span style=&quot;color: #868e96;&quot;&gt;immutable&lt;/span&gt; &lt;span style=&quot;color: #dcdcdc;&quot;&gt;=&lt;/span&gt; &lt;span style=&quot;color: #dcdcdc;&quot;&gt;[&lt;/span&gt;&lt;span style=&quot;color: #5bb498;&quot;&gt;0x0004124021&lt;/span&gt;&lt;span style=&quot;color: #dcdcdc;&quot;&gt;,&lt;/span&gt; &lt;span style=&quot;color: #5bb498;&quot;&gt;0x9412421&lt;/span&gt; &lt;span style=&quot;color: #dcdcdc;&quot;&gt;...&lt;/span&gt; &lt;span style=&quot;color: #5bb498;&quot;&gt;0x8412421&lt;/span&gt;&lt;span style=&quot;color: #dcdcdc;&quot;&gt;]&lt;/span&gt;&lt;/div&gt;&lt;/div&gt;&lt;/div&gt;&lt;div&gt;&lt;span style=&quot;color: #569cd6;&quot;&gt;&lt;/span&gt;&lt;/div&gt;&lt;/div&gt;" style="text;whiteSpace=wrap;html=1;fontSize=27;fontColor=#575757;" parent="1" vertex="1">
                    <mxGeometry x="-210" y="-5390" width="560" height="60" as="geometry"/>
                </mxCell>
                <mxCell id="54" style="edgeStyle=none;html=1;entryX=0;entryY=0.25;entryDx=0;entryDy=0;fontSize=27;fontColor=#CDC6CF;" parent="1" target="49" edge="1">
                    <mxGeometry relative="1" as="geometry">
                        <mxPoint x="350" y="-5120" as="sourcePoint"/>
                    </mxGeometry>
                </mxCell>
                <mxCell id="55" value="" style="whiteSpace=wrap;html=1;fontSize=27;fontColor=#CDC6CF;fillColor=#222336;" parent="1" vertex="1">
                    <mxGeometry x="-870" y="-5320" width="210" height="190" as="geometry"/>
                </mxCell>
                <mxCell id="56" value="" style="whiteSpace=wrap;html=1;fontSize=27;fontColor=#CDC6CF;fillColor=#222336;" parent="1" vertex="1">
                    <mxGeometry x="-860" y="-5310" width="210" height="190" as="geometry"/>
                </mxCell>
                <mxCell id="57" value="" style="whiteSpace=wrap;html=1;fontSize=27;fontColor=#CDC6CF;fillColor=#222336;" parent="1" vertex="1">
                    <mxGeometry x="-850" y="-5300" width="210" height="190" as="geometry"/>
                </mxCell>
                <mxCell id="58" value="" style="whiteSpace=wrap;html=1;fontSize=27;fontColor=#CDC6CF;fillColor=#222336;" parent="1" vertex="1">
                    <mxGeometry x="-840" y="-5290" width="210" height="190" as="geometry"/>
                </mxCell>
                <mxCell id="59" value="" style="whiteSpace=wrap;html=1;fontSize=27;fontColor=#CDC6CF;fillColor=#222336;" parent="1" vertex="1">
                    <mxGeometry x="-830" y="-5280" width="210" height="190" as="geometry"/>
                </mxCell>
                <mxCell id="60" value="" style="whiteSpace=wrap;html=1;fontSize=27;fontColor=#CDC6CF;fillColor=#222336;" parent="1" vertex="1">
                    <mxGeometry x="-820" y="-5270" width="210" height="190" as="geometry"/>
                </mxCell>
                <mxCell id="61" value="" style="whiteSpace=wrap;html=1;fontSize=27;fontColor=#CDC6CF;fillColor=#222336;" parent="1" vertex="1">
                    <mxGeometry x="-810" y="-5260" width="210" height="190" as="geometry"/>
                </mxCell>
                <mxCell id="62" value="" style="whiteSpace=wrap;html=1;fontSize=27;fontColor=#CDC6CF;fillColor=#222336;" parent="1" vertex="1">
                    <mxGeometry x="-800" y="-5250" width="210" height="190" as="geometry"/>
                </mxCell>
                <mxCell id="63" value="" style="whiteSpace=wrap;html=1;fontSize=27;fontColor=#CDC6CF;fillColor=#222336;" parent="1" vertex="1">
                    <mxGeometry x="-790" y="-5240" width="210" height="190" as="geometry"/>
                </mxCell>
                <mxCell id="64" value="" style="whiteSpace=wrap;html=1;fontSize=27;fontColor=#CDC6CF;fillColor=#222336;" parent="1" vertex="1">
                    <mxGeometry x="-780" y="-5230" width="210" height="190" as="geometry"/>
                </mxCell>
                <mxCell id="65" value="" style="whiteSpace=wrap;html=1;fontSize=27;fontColor=#CDC6CF;fillColor=#222336;" parent="1" vertex="1">
                    <mxGeometry x="-770" y="-5220" width="210" height="190" as="geometry"/>
                </mxCell>
                <mxCell id="66" value="External contracts" style="text;html=1;align=center;verticalAlign=middle;resizable=0;points=[];autosize=1;strokeColor=none;fillColor=none;fontSize=27;fontColor=#CDC6CF;" parent="1" vertex="1">
                    <mxGeometry x="-875" y="-5370" width="240" height="50" as="geometry"/>
                </mxCell>
                <mxCell id="67" value="" style="whiteSpace=wrap;html=1;fontSize=27;fontColor=#CDC6CF;fillColor=#222336;" parent="1" vertex="1">
                    <mxGeometry x="-850" y="-4859.0599999999995" width="210" height="190" as="geometry"/>
                </mxCell>
                <mxCell id="68" value="" style="whiteSpace=wrap;html=1;fontSize=27;fontColor=#CDC6CF;fillColor=#222336;" parent="1" vertex="1">
                    <mxGeometry x="-840" y="-4849.0599999999995" width="210" height="190" as="geometry"/>
                </mxCell>
                <mxCell id="69" value="" style="whiteSpace=wrap;html=1;fontSize=27;fontColor=#CDC6CF;fillColor=#222336;" parent="1" vertex="1">
                    <mxGeometry x="-830" y="-4839.0599999999995" width="210" height="190" as="geometry"/>
                </mxCell>
                <mxCell id="70" value="" style="whiteSpace=wrap;html=1;fontSize=27;fontColor=#CDC6CF;fillColor=#222336;" parent="1" vertex="1">
                    <mxGeometry x="-820" y="-4829.0599999999995" width="210" height="190" as="geometry"/>
                </mxCell>
                <mxCell id="71" value="" style="whiteSpace=wrap;html=1;fontSize=27;fontColor=#CDC6CF;fillColor=#222336;" parent="1" vertex="1">
                    <mxGeometry x="-810" y="-4819.0599999999995" width="210" height="190" as="geometry"/>
                </mxCell>
                <mxCell id="72" value="" style="whiteSpace=wrap;html=1;fontSize=27;fontColor=#CDC6CF;fillColor=#222336;" parent="1" vertex="1">
                    <mxGeometry x="-800" y="-4809.0599999999995" width="210" height="190" as="geometry"/>
                </mxCell>
                <mxCell id="73" value="" style="whiteSpace=wrap;html=1;fontSize=27;fontColor=#CDC6CF;fillColor=#222336;" parent="1" vertex="1">
                    <mxGeometry x="-790" y="-4799.0599999999995" width="210" height="190" as="geometry"/>
                </mxCell>
                <mxCell id="74" value="" style="whiteSpace=wrap;html=1;fontSize=27;fontColor=#CDC6CF;fillColor=#222336;" parent="1" vertex="1">
                    <mxGeometry x="-780" y="-4789.0599999999995" width="210" height="190" as="geometry"/>
                </mxCell>
                <mxCell id="75" value="" style="whiteSpace=wrap;html=1;fontSize=27;fontColor=#CDC6CF;fillColor=#222336;" parent="1" vertex="1">
                    <mxGeometry x="-770" y="-4779.0599999999995" width="210" height="190" as="geometry"/>
                </mxCell>
                <mxCell id="76" value="" style="whiteSpace=wrap;html=1;fontSize=27;fontColor=#CDC6CF;fillColor=#222336;" parent="1" vertex="1">
                    <mxGeometry x="-760" y="-4769.0599999999995" width="210" height="190" as="geometry"/>
                </mxCell>
                <mxCell id="77" value="" style="whiteSpace=wrap;html=1;fontSize=27;fontColor=#CDC6CF;fillColor=#222336;" parent="1" vertex="1">
                    <mxGeometry x="-750" y="-4759.0599999999995" width="210" height="190" as="geometry"/>
                </mxCell>
                <mxCell id="78" value="YC Wrapper/Utils Contracts" style="text;html=1;align=center;verticalAlign=middle;resizable=0;points=[];autosize=1;strokeColor=none;fillColor=none;fontSize=27;fontColor=#CDC6CF;" parent="1" vertex="1">
                    <mxGeometry x="-910" y="-4909.0599999999995" width="350" height="50" as="geometry"/>
                </mxCell>
                <mxCell id="89" style="edgeStyle=none;html=1;entryX=0;entryY=0.75;entryDx=0;entryDy=0;fontSize=30;strokeWidth=5;" edge="1" parent="1" source="82" target="85">
                    <mxGeometry relative="1" as="geometry"/>
                </mxCell>
                <mxCell id="93" style="edgeStyle=none;html=1;entryX=0;entryY=0.5;entryDx=0;entryDy=0;strokeWidth=5;fontSize=30;" edge="1" parent="1" source="82" target="91">
                    <mxGeometry relative="1" as="geometry"/>
                </mxCell>
                <mxCell id="82" value="" style="rhombus;whiteSpace=wrap;html=1;" vertex="1" parent="1">
                    <mxGeometry x="-1596" y="1721" width="1003" height="1003" as="geometry"/>
                </mxCell>
                <mxCell id="83" value="&lt;font style=&quot;font-size: 100px;&quot;&gt;YC Diamond&lt;/font&gt;" style="text;html=1;align=center;verticalAlign=middle;resizable=0;points=[];autosize=1;strokeColor=none;fillColor=none;" vertex="1" parent="1">
                    <mxGeometry x="-1372" y="2144" width="585" height="132" as="geometry"/>
                </mxCell>
                <mxCell id="85" value="" style="whiteSpace=wrap;html=1;fontSize=27;fontColor=#CDC6CF;fillColor=#222336;" vertex="1" parent="1">
                    <mxGeometry x="-432" y="1835" width="210" height="190" as="geometry"/>
                </mxCell>
                <mxCell id="86" value="" style="whiteSpace=wrap;html=1;fontSize=27;fontColor=#CDC6CF;fillColor=#222336;" vertex="1" parent="1">
                    <mxGeometry x="-396" y="1860" width="210" height="190" as="geometry"/>
                </mxCell>
                <mxCell id="87" value="" style="whiteSpace=wrap;html=1;fontSize=27;fontColor=#CDC6CF;fillColor=#222336;" vertex="1" parent="1">
                    <mxGeometry x="-356" y="1890" width="210" height="190" as="geometry"/>
                </mxCell>
                <mxCell id="88" value="&lt;font style=&quot;font-size: 30px;&quot;&gt;Base Facets&lt;/font&gt;" style="text;html=1;align=center;verticalAlign=middle;resizable=0;points=[];autosize=1;strokeColor=none;fillColor=none;fontSize=100;" vertex="1" parent="1">
                    <mxGeometry x="-400" y="1700" width="185" height="132" as="geometry"/>
                </mxCell>
                <mxCell id="90" value="" style="whiteSpace=wrap;html=1;fontSize=27;fontColor=#CDC6CF;fillColor=#222336;" vertex="1" parent="1">
                    <mxGeometry x="-282" y="2404" width="210" height="190" as="geometry"/>
                </mxCell>
                <mxCell id="91" value="" style="whiteSpace=wrap;html=1;fontSize=27;fontColor=#CDC6CF;fillColor=#222336;" vertex="1" parent="1">
                    <mxGeometry x="-344" y="2366" width="210" height="190" as="geometry"/>
                </mxCell>
                <mxCell id="92" value="&lt;span style=&quot;font-size: 30px;&quot;&gt;Base Util Facets (e.g .find)&lt;/span&gt;" style="text;html=1;align=center;verticalAlign=middle;resizable=0;points=[];autosize=1;strokeColor=none;fillColor=none;fontSize=100;" vertex="1" parent="1">
                    <mxGeometry x="-387" y="2250" width="371" height="132" as="geometry"/>
                </mxCell>
                <mxCell id="94" value="" style="whiteSpace=wrap;html=1;fontSize=27;fontColor=#CDC6CF;fillColor=#222336;" vertex="1" parent="1">
                    <mxGeometry x="-982" y="2948" width="426" height="358" as="geometry"/>
                </mxCell>
                <mxCell id="95" value="&lt;span style=&quot;font-size: 30px;&quot;&gt;Automation Facet&lt;/span&gt;" style="text;html=1;align=center;verticalAlign=middle;resizable=0;points=[];autosize=1;strokeColor=none;fillColor=none;fontSize=100;" vertex="1" parent="1">
                    <mxGeometry x="-890" y="2816" width="253" height="132" as="geometry"/>
                </mxCell>
                <mxCell id="96" value="&lt;div style=&quot;background-color: rgb(36, 41, 46); font-family: Menlo, Monaco, &amp;quot;Courier New&amp;quot;, monospace; font-weight: normal; font-size: 14px; line-height: 21px;&quot;&gt;&lt;div style=&quot;&quot;&gt;&lt;font color=&quot;#ff00cc&quot;&gt;fundStrategyGas(_amount, _strategyID)&lt;/font&gt;&lt;/div&gt;&lt;/div&gt;" style="text;html=1;align=center;verticalAlign=middle;resizable=0;points=[];autosize=1;strokeColor=none;fillColor=none;fontSize=30;" vertex="1" parent="1">
                    <mxGeometry x="-965" y="2998" width="330" height="33" as="geometry"/>
                </mxCell>
                <mxCell id="98" value="&lt;font style=&quot;font-size: 84px;&quot; color=&quot;#fffffc&quot;&gt;&lt;u&gt;&lt;b&gt;Modifiers&lt;/b&gt;&lt;/u&gt;&lt;/font&gt;" style="text;html=1;align=center;verticalAlign=middle;resizable=0;points=[];autosize=1;strokeColor=none;fillColor=none;fontSize=30;fontColor=none;" vertex="1" parent="1">
                    <mxGeometry x="-1219" y="1001" width="391" height="113" as="geometry"/>
                </mxCell>
                <mxCell id="99" value="Pink - &lt;font color=&quot;#ff00cc&quot;&gt;OnlyExecutor&lt;/font&gt;" style="text;html=1;align=center;verticalAlign=middle;resizable=0;points=[];autosize=1;strokeColor=none;fillColor=none;fontSize=84;fontColor=#FFFFFC;" vertex="1" parent="1">
                    <mxGeometry x="-1436" y="1156" width="760" height="113" as="geometry"/>
                </mxCell>
                <mxCell id="100" value="Orange - &lt;font color=&quot;#ffc70f&quot;&gt;Internal&lt;/font&gt;" style="text;html=1;align=center;verticalAlign=middle;resizable=0;points=[];autosize=1;strokeColor=none;fillColor=none;fontSize=84;fontColor=#FFFFFC;" vertex="1" parent="1">
                    <mxGeometry x="-1440" y="1269" width="653" height="113" as="geometry"/>
                </mxCell>
                <mxCell id="101" value="Green - &lt;font color=&quot;#00cc0e&quot;&gt;Public&lt;/font&gt;" style="text;html=1;align=center;verticalAlign=middle;resizable=0;points=[];autosize=1;strokeColor=none;fillColor=none;fontSize=84;fontColor=#FFFFFC;" vertex="1" parent="1">
                    <mxGeometry x="-1441" y="1382" width="555" height="113" as="geometry"/>
                </mxCell>
                <mxCell id="102" value="Blue - &lt;font color=&quot;#0066cc&quot;&gt;OnlyDiamond&lt;/font&gt;" style="text;html=1;align=center;verticalAlign=middle;resizable=0;points=[];autosize=1;strokeColor=none;fillColor=none;fontSize=84;fontColor=#FFFFFC;" vertex="1" parent="1">
                    <mxGeometry x="-1436" y="1495" width="770" height="113" as="geometry"/>
                </mxCell>
                <mxCell id="103" value="&lt;font style=&quot;font-size: 12px;&quot; color=&quot;#6e6e6e&quot;&gt;// Called as a fullfil of a gas balance funding req&lt;/font&gt;" style="text;html=1;align=center;verticalAlign=middle;resizable=0;points=[];autosize=1;strokeColor=none;fillColor=none;fontSize=84;fontColor=#FF00CC;" vertex="1" parent="1">
                    <mxGeometry x="-965" y="2905" width="270" height="113" as="geometry"/>
                </mxCell>
            </root>
        </mxGraphModel>
    </diagram>
</mxfile>